<?xml version="1.0" encoding="utf-8"?>
<!-- Generator: Adobe Illustrator 17.0.0, SVG Export Plug-In . SVG Version: 6.00 Build 0)  -->
<!DOCTYPE svg PUBLIC "-//W3C//DTD SVG 1.1//EN" "http://www.w3.org/Graphics/SVG/1.1/DTD/svg11.dtd">
<svg version="1.1" id="Layer_1" xmlns="http://www.w3.org/2000/svg" xmlns:xlink="http://www.w3.org/1999/xlink" x="0px" y="0px"
	 width="64px" height="64px" viewBox="0 0 64 64" enable-background="new 0 0 64 64" xml:space="preserve">
<g>
	<path fill="#BDBCBB" d="M32,0C14.326,0,0,14.328,0,32c0,17.674,14.326,32,32,32s32-14.326,32-32C64,14.328,49.674,0,32,0z
		 M44.598,22.046h-4.546l-0.012-4.542L44.598,22.046z M45.992,46H22.006V25H17v-7h5.006v-1.998h15.986v8.042h8V46z"/>
	<rect x="26" y="32" fill="#BDBCBB" width="16" height="2"/>
	<rect x="26" y="36" fill="#BDBCBB" width="16" height="2"/>
	<rect x="26" y="40" fill="#BDBCBB" width="16" height="2"/>
</g>
<g>
	<path fill="#BDBCBB" d="M21.883,20.715c-0.07-0.066-0.16-0.111-0.268-0.135c-0.081-0.019-0.239-0.027-0.475-0.027h-0.26v1.896
		h0.432c0.162,0,0.278-0.009,0.35-0.027c0.094-0.023,0.171-0.063,0.233-0.119s0.112-0.148,0.151-0.276s0.059-0.303,0.059-0.524
		s-0.02-0.392-0.059-0.51S21.953,20.781,21.883,20.715z"/>
	<path fill="#BDBCBB" d="M24.467,20.514c-0.238,0-0.43,0.082-0.576,0.245s-0.219,0.41-0.219,0.739c0,0.324,0.075,0.57,0.225,0.737
		s0.34,0.251,0.57,0.251s0.419-0.083,0.567-0.249s0.222-0.415,0.222-0.747c0-0.328-0.072-0.573-0.216-0.734
		S24.705,20.514,24.467,20.514z"/>
	<path fill="#BDBCBB" d="M18,19v5h13v-5H18z M22.615,22.137c-0.072,0.208-0.174,0.377-0.307,0.506
		c-0.1,0.098-0.236,0.174-0.406,0.229c-0.127,0.04-0.298,0.061-0.512,0.061h-1.088v-2.863h1.057c0.238,0,0.42,0.019,0.545,0.055
		c0.168,0.05,0.312,0.138,0.432,0.264s0.211,0.281,0.273,0.464s0.094,0.408,0.094,0.677C22.703,21.763,22.674,21.966,22.615,22.137z
		 M25.477,22.589c-0.251,0.261-0.587,0.392-1.008,0.392c-0.426,0-0.764-0.13-1.016-0.39s-0.377-0.617-0.377-1.073
		c0-0.292,0.043-0.536,0.131-0.734c0.065-0.146,0.154-0.276,0.267-0.393s0.236-0.202,0.37-0.258
		c0.178-0.075,0.384-0.113,0.617-0.113c0.422,0,0.759,0.131,1.013,0.393s0.38,0.626,0.38,1.092
		C25.854,21.966,25.728,22.328,25.477,22.589z M28.269,22.753c-0.2,0.151-0.454,0.228-0.761,0.228c-0.38,0-0.693-0.13-0.938-0.39
		s-0.367-0.615-0.367-1.065c0-0.477,0.123-0.847,0.369-1.11s0.57-0.396,0.971-0.396c0.35,0,0.635,0.104,0.854,0.311
		c0.13,0.122,0.228,0.298,0.293,0.527l-0.572,0.137c-0.034-0.148-0.104-0.266-0.212-0.352s-0.238-0.129-0.392-0.129
		c-0.212,0-0.384,0.076-0.517,0.229s-0.198,0.399-0.198,0.74c0,0.362,0.065,0.62,0.195,0.773s0.299,0.23,0.508,0.23
		c0.154,0,0.286-0.049,0.396-0.146s0.19-0.251,0.238-0.461l0.561,0.178C28.611,22.369,28.468,22.602,28.269,22.753z"/>
</g>
</svg>
