<?xml version="1.0" encoding="utf-8"?>
<!-- Generator: Adobe Illustrator 17.0.0, SVG Export Plug-In . SVG Version: 6.00 Build 0)  -->
<!DOCTYPE svg PUBLIC "-//W3C//DTD SVG 1.1//EN" "http://www.w3.org/Graphics/SVG/1.1/DTD/svg11.dtd">
<svg version="1.1" id="Layer_1" xmlns="http://www.w3.org/2000/svg" xmlns:xlink="http://www.w3.org/1999/xlink" x="0px" y="0px"
	 width="64px" height="64px" viewBox="0 0 64 64" enable-background="new 0 0 64 64" xml:space="preserve">
<g>
	<path fill="#BDBCBB" d="M32,0C14.326,0,0,14.328,0,32c0,17.674,14.326,32,32,32s32-14.326,32-32C64,14.328,49.674,0,32,0z
		 M44.598,22.046h-4.546l-0.012-4.542L44.598,22.046z M45.992,46H22.006V25H17v-7h5.006v-1.998h15.986v8.042h8V46z"/>
</g>
<g>
	<path fill="#BDBCBB" d="M21.883,20.715c-0.07-0.066-0.16-0.111-0.268-0.135c-0.081-0.019-0.239-0.027-0.475-0.027h-0.26v1.896
		h0.432c0.162,0,0.278-0.009,0.35-0.027c0.094-0.023,0.171-0.063,0.233-0.119s0.112-0.148,0.151-0.276s0.059-0.303,0.059-0.524
		s-0.02-0.392-0.059-0.51S21.953,20.781,21.883,20.715z"/>
	<path fill="#BDBCBB" d="M24.467,20.514c-0.238,0-0.43,0.082-0.576,0.245s-0.219,0.41-0.219,0.739c0,0.324,0.075,0.57,0.225,0.737
		s0.34,0.251,0.57,0.251s0.419-0.083,0.567-0.249s0.222-0.415,0.222-0.747c0-0.328-0.072-0.573-0.216-0.734
		S24.705,20.514,24.467,20.514z"/>
	<path fill="#BDBCBB" d="M18,19v5h13v-5H18z"/>
</g>
<path fill="#BDBCBB" d="M39.241,33.561l-6.43,6.431c-0.568,0.569-1.404,0.895-2.294,0.895h-0.001c-0.95,0-1.865-0.37-2.512-1.018
	c-1.296-1.297-1.318-3.465-0.049-4.734l5.533-5.533l0.696,0.697l-5.532,5.533c-0.778,0.778-0.949,2.342,0.049,3.342
	c0.463,0.463,1.125,0.729,1.815,0.729l0,0c0.631,0,1.213-0.221,1.598-0.606l6.431-6.431c0.542-0.542,0.647-1.647-0.07-2.364
	c-0.705-0.704-1.836-0.623-2.377-0.083l-4.683,4.684c-0.272,0.264-0.415,0.561-0.419,0.862c-0.003,0.263,0.101,0.523,0.289,0.715
	c0.2,0.204,0.433,0.308,0.694,0.308c0,0,0.001,0,0.001,0c0.335,0,0.687-0.173,0.989-0.484l3.679-3.726l0.7,0.692l-3.676,3.722
	c-0.487,0.502-1.088,0.78-1.692,0.78c-0.001,0-0.002,0-0.003,0c-0.529,0-1.012-0.209-1.399-0.605
	c-0.368-0.377-0.575-0.893-0.568-1.415c0.007-0.569,0.254-1.105,0.712-1.55l4.679-4.679c0.982-0.98,2.742-0.942,3.77,0.083
	C40.189,30.823,40.222,32.579,39.241,33.561z"/>
</svg>
