<?xml version="1.0" encoding="utf-8"?>
<!-- Generator: Adobe Illustrator 17.0.0, SVG Export Plug-In . SVG Version: 6.00 Build 0)  -->
<!DOCTYPE svg PUBLIC "-//W3C//DTD SVG 1.1//EN" "http://www.w3.org/Graphics/SVG/1.1/DTD/svg11.dtd">
<svg version="1.1" id="Layer_1" xmlns="http://www.w3.org/2000/svg" xmlns:xlink="http://www.w3.org/1999/xlink" x="0px" y="0px"
	 width="64px" height="64px" viewBox="0 0 64 64" enable-background="new 0 0 64 64" xml:space="preserve">
<g>
	<polygon fill="#C8C5C4" points="44.012,18.016 44.012,17.998 43.994,17.998 	"/>
	<path fill="#C8C5C4" d="M32,0C14.326,0,0,14.326,0,32s14.326,32,32,32s32-14.326,32-32S49.674,0,32,0z M36.04,44.496l0.012-4.542
		h4.546L36.04,44.496z M34,38v7.998l-13.994-0.002V20h21.986L42,38H34z M46,37.998h-2V18.016H24v-2h20v-0.018h2V37.998z"/>
	<rect x="24" y="32" fill="#C8C5C4" width="2" height="2"/>
	<rect x="28" y="32" fill="#C8C5C4" width="10" height="2"/>
	<rect x="24" y="28" fill="#C8C5C4" width="2" height="2"/>
	<rect x="28" y="28" fill="#C8C5C4" width="10" height="2"/>
	<rect x="24" y="24" fill="#C8C5C4" width="2" height="2"/>
	<rect x="28" y="24" fill="#C8C5C4" width="10" height="2"/>
</g>
</svg>
