<?xml version="1.0" encoding="utf-8"?>
<!-- Generator: Adobe Illustrator 17.0.0, SVG Export Plug-In . SVG Version: 6.00 Build 0)  -->
<!DOCTYPE svg PUBLIC "-//W3C//DTD SVG 1.1//EN" "http://www.w3.org/Graphics/SVG/1.1/DTD/svg11.dtd">
<svg version="1.1" id="Layer_1" xmlns="http://www.w3.org/2000/svg" xmlns:xlink="http://www.w3.org/1999/xlink" x="0px" y="0px"
	 width="64px" height="64px" viewBox="0 0 64 64" enable-background="new 0 0 64 64" xml:space="preserve">
<g>
	<rect x="35.96" y="33.96" fill="#C8C5C4" width="4.081" height="4.081"/>
	<rect x="35.96" y="28" fill="#C8C5C4" width="4.081" height="4.081"/>
	<rect x="35.96" y="40" fill="#C8C5C4" width="4.081" height="4.081"/>
	<rect x="29.96" y="40" fill="#C8C5C4" width="4.081" height="4.081"/>
	<rect x="29.96" y="28" fill="#C8C5C4" width="4.081" height="4.081"/>
	<rect x="29.96" y="33.96" fill="#C8C5C4" width="4.081" height="4.081"/>
	<rect x="22" y="18" fill="#C8C5C4" width="20" height="6"/>
	<rect x="24" y="40" fill="#C8C5C4" width="4.081" height="4.081"/>
	<rect x="24" y="28" fill="#C8C5C4" width="4.081" height="4.081"/>
	<rect x="24" y="33.96" fill="#C8C5C4" width="4.081" height="4.081"/>
	<path fill="#C8C5C4" d="M32,0C14.327,0,0,14.327,0,32s14.327,32,32,32s32-14.327,32-32S49.673,0,32,0z M44,48H20V16h24V48z"/>
</g>
</svg>
