<?xml version="1.0" encoding="utf-8"?>
<!-- Generator: Adobe Illustrator 17.0.0, SVG Export Plug-In . SVG Version: 6.00 Build 0)  -->
<!DOCTYPE svg PUBLIC "-//W3C//DTD SVG 1.1//EN" "http://www.w3.org/Graphics/SVG/1.1/DTD/svg11.dtd">
<svg version="1.1" id="Layer_1" xmlns="http://www.w3.org/2000/svg" xmlns:xlink="http://www.w3.org/1999/xlink" x="0px" y="0px"
	 width="64px" height="64px" viewBox="0 0 64 64" enable-background="new 0 0 64 64" xml:space="preserve">
<g>
	<rect x="40" y="18" fill="#C8C5C4" width="4" height="4"/>
	<rect x="18" y="42" fill="#C8C5C4" width="4" height="4"/>
	<rect x="18" y="34" fill="#C8C5C4" width="4" height="4"/>
	<rect x="40" y="26" fill="#C8C5C4" width="4" height="4"/>
	<rect x="26" y="42" fill="#C8C5C4" width="4" height="4"/>
	<rect x="26" y="34" fill="#C8C5C4" width="4" height="4"/>
	<rect x="40" y="42" fill="#C8C5C4" width="4" height="4"/>
	<rect x="32" y="18" fill="#C8C5C4" width="4" height="4"/>
	<rect x="40" y="34" fill="#C8C5C4" width="4" height="4"/>
	<path fill="#C8C5C4" d="M32,0C14.327,0,0,14.327,0,32s14.327,32,32,32s32-14.327,32-32S49.673,0,32,0z M34,50H14V30h20V50z M48,50
		H35.967V28.005H28V14h20V50z"/>
</g>
</svg>
