<?xml version="1.0" encoding="utf-8"?>
<!-- Generator: Adobe Illustrator 17.0.0, SVG Export Plug-In . SVG Version: 6.00 Build 0)  -->
<!DOCTYPE svg PUBLIC "-//W3C//DTD SVG 1.1//EN" "http://www.w3.org/Graphics/SVG/1.1/DTD/svg11.dtd">
<svg version="1.1" id="Layer_1" xmlns="http://www.w3.org/2000/svg" xmlns:xlink="http://www.w3.org/1999/xlink" x="0px" y="0px"
	 width="64px" height="64px" viewBox="0 0 64 64" enable-background="new 0 0 64 64" xml:space="preserve">
<path fill="#C8C5C4" d="M32,0C14.326,0,0,14.326,0,32s14.326,32,32,32s32-14.326,32-32S49.674,0,32,0z M47.097,16.032
	c-1.447,0.48-3.429,1.14-4.29,2.553c-1.349,2.213-2.373,2.417-3.458,2.634c-0.67,0.135-1.3,0.261-2.161,0.921
	c-0.34,0.261-0.682,0.404-1.014,0.542c-1.314,0.544-3.114,1.292-6.668,11.889c-0.854,2.961-0.62,4.918-0.394,6.809
	c0.167,1.403,0.34,2.855,0.03,4.623c-0.359,2.053-1.519,4.785-2.809,4.379c-0.465-0.145-0.879-0.652-1.492-1.849
	c-0.687-1.342-1.167,0.207-1.371,0.746c-1.14,2.998-2.9,3.552-3.673,3.552c-0.261,0-0.519-0.032-0.77-0.094
	c-0.126-0.015-4.172-0.731-4.148-9.398c0.017-5.622,3.015-6.895,5.659-8.015c1.45-0.615,2.821-1.196,3.636-2.449
	c0.389-0.598,0.916-1.684,1.58-3.057c2.969-6.117,8.49-17.509,17.312-17.509c1.593,0,3.237,0.382,4.884,1.132
	c0.638,0.31,1.211,0.672,1.172,1.255C49.076,15.372,48.332,15.621,47.097,16.032z"/>
</svg>
