<?xml version="1.0" encoding="utf-8"?>
<!-- Generator: Adobe Illustrator 17.0.0, SVG Export Plug-In . SVG Version: 6.00 Build 0)  -->
<!DOCTYPE svg PUBLIC "-//W3C//DTD SVG 1.1//EN" "http://www.w3.org/Graphics/SVG/1.1/DTD/svg11.dtd">
<svg version="1.1" id="lokalt" xmlns="http://www.w3.org/2000/svg" xmlns:xlink="http://www.w3.org/1999/xlink" x="0px" y="0px"
	 width="64px" height="64px" viewBox="0 0 64 64" enable-background="new 0 0 64 64" xml:space="preserve">
<g>
	<path fill="#C9C5C4" d="M32,0.062c-17.673,0-32,14.327-32,32c0,17.673,14.327,32,32,32c17.673,0,32-14.327,32-32
		C64,14.389,49.673,0.062,32,0.062z M43.23,29.639L31.967,54.255L20.702,29.639h0.04c-0.675-1.523-1.083-3.189-1.083-4.962
		c0-6.797,5.51-12.308,12.308-12.308s12.308,5.51,12.308,12.308c0,1.769-0.388,3.442-1.06,4.962H43.23z"/>
	<circle fill="#C9C5C4" cx="32" cy="24.677" r="2.462"/>
</g>
</svg>
