<?xml version="1.0" encoding="utf-8"?>
<!-- Generator: Adobe Illustrator 17.0.0, SVG Export Plug-In . SVG Version: 6.00 Build 0)  -->
<!DOCTYPE svg PUBLIC "-//W3C//DTD SVG 1.1//EN" "http://www.w3.org/Graphics/SVG/1.1/DTD/svg11.dtd">
<svg version="1.1" id="Layer_1" xmlns="http://www.w3.org/2000/svg" xmlns:xlink="http://www.w3.org/1999/xlink" x="0px" y="0px"
	 width="64px" height="64px" viewBox="0 0 64 64" enable-background="new 0 0 64 64" xml:space="preserve">
<g>
	<path fill="#BDBCBB" d="M32,0C14.326,0,0,14.328,0,32c0,17.674,14.326,32,32,32s32-14.326,32-32C64,14.328,49.674,0,32,0z
		 M44.598,22.046h-4.546l-0.012-4.542L44.598,22.046z M45.992,46H22.006V25H17v-7h5.006v-1.998h15.986v8.042h8V46z"/>
</g>
<g>
	<path fill="#BDBCBB" d="M22.07,20.572c-0.069-0.013-0.208-0.02-0.416-0.02h-0.279v0.812h0.316c0.228,0,0.38-0.015,0.457-0.045
		s0.137-0.077,0.181-0.141s0.065-0.138,0.065-0.223c0-0.104-0.031-0.19-0.092-0.258S22.164,20.589,22.07,20.572z"/>
	<path fill="#BDBCBB" d="M24.738,20.572c-0.069-0.013-0.208-0.02-0.416-0.02h-0.279v0.812h0.316c0.228,0,0.38-0.015,0.457-0.045
		s0.137-0.077,0.181-0.141s0.065-0.138,0.065-0.223c0-0.104-0.031-0.19-0.092-0.258S24.832,20.589,24.738,20.572z"/>
	<path fill="#BDBCBB" d="M18,19v5h13v-5H18z M22.895,21.393c-0.064,0.12-0.145,0.214-0.243,0.282s-0.198,0.113-0.3,0.136
		c-0.138,0.027-0.338,0.041-0.6,0.041h-0.377v1.08h-0.578v-2.863h0.928c0.352,0,0.581,0.015,0.688,0.043
		c0.164,0.043,0.301,0.137,0.412,0.28s0.166,0.33,0.166,0.558C22.99,21.125,22.958,21.272,22.895,21.393z M25.562,21.393
		c-0.064,0.12-0.145,0.214-0.243,0.282s-0.198,0.113-0.3,0.136c-0.138,0.027-0.338,0.041-0.6,0.041h-0.377v1.08h-0.578v-2.863h0.928
		c0.352,0,0.581,0.015,0.688,0.043c0.164,0.043,0.301,0.137,0.412,0.28s0.166,0.33,0.166,0.558
		C25.658,21.125,25.626,21.272,25.562,21.393z M28.203,20.553h-0.848v2.379h-0.578v-2.379h-0.85v-0.484h2.275V20.553z"/>
</g>
<path fill="#BDBCBB" d="M34.992,29v4.952h4.952C39.705,31.332,37.612,29.238,34.992,29z"/>
<path fill="#BDBCBB" d="M33.969,34.969v-5.975c-3.3,0-5.975,2.675-5.975,5.975s2.675,5.975,5.975,5.975s5.975-2.675,5.975-5.975
	H33.969z"/>
</svg>
