<?xml version="1.0" encoding="utf-8"?>
<!-- Generator: Adobe Illustrator 17.1.0, SVG Export Plug-In . SVG Version: 6.00 Build 0)  -->
<!DOCTYPE svg PUBLIC "-//W3C//DTD SVG 1.1//EN" "http://www.w3.org/Graphics/SVG/1.1/DTD/svg11.dtd">
<svg version="1.1" id="Layer_1" xmlns="http://www.w3.org/2000/svg" xmlns:xlink="http://www.w3.org/1999/xlink" x="0px" y="0px"
	 width="70px" height="60px" viewBox="-5 0 70 60" enable-background="new -5 0 70 60" xml:space="preserve">
<g>
	<path fill="#C22026" d="M65,40.3c0-0.4,0-0.9-0.1-1.5c-0.4-3.1-3-5.4-5.6-6.9c-2.8-1.6-7.1-3-7.1-3s-11-9.4-18-9.4l-38.6,0.1
		c-0.3,0-0.5,0.2-0.5,0.5l0,20.1c0,1.3,0.9,3.1,2.7,3.1h2.1c0-3.8,3.1-6.9,6.9-6.9c3.8,0,6.9,3.1,6.9,6.9h32.1
		c0-3.8,3.1-6.9,6.9-6.9c3.8,0,6.9,3.1,6.9,6.9h2.8H65L65,40.3L65,40.3z M23,30.4h-3.2v3.2h-3.4v-3.2h-3.2V27h3.2v-3.2h3.4V27H23
		V30.4z M32.5,29v-7.6l1.8,0c4-0.2,15,7.6,15,7.6H32.5z"/>
	<circle fill="#C22026" cx="52.4" cy="43.4" r="4.8"/>
	<circle fill="#C22026" cx="6.7" cy="43.4" r="4.7"/>
	<path fill="#C22026" d="M27.5,18.3h4.9c0.3,0,0.5-0.2,0.5-0.5v-0.2c0-0.3-0.2-0.5-0.4-0.5c-0.2,0-0.5-0.2-0.5-0.5l-0.5-2.8
		c0-0.3-0.3-0.5-0.6-0.5h-2c-0.3,0-0.5,0.2-0.6,0.5l-0.5,2.8c0,0.3-0.3,0.5-0.5,0.5c-0.2,0-0.4,0.2-0.4,0.5v0.2
		C27,18.1,27.2,18.3,27.5,18.3z"/>
</g>
</svg>
