<?xml version="1.0" encoding="utf-8"?>
<!-- Generator: Adobe Illustrator 17.1.0, SVG Export Plug-In . SVG Version: 6.00 Build 0)  -->
<!DOCTYPE svg PUBLIC "-//W3C//DTD SVG 1.1//EN" "http://www.w3.org/Graphics/SVG/1.1/DTD/svg11.dtd">
<svg version="1.1" id="Layer_1" xmlns="http://www.w3.org/2000/svg" xmlns:xlink="http://www.w3.org/1999/xlink" x="0px" y="0px"
	 width="60px" height="60px" viewBox="0 0 60 60" enable-background="new 0 0 60 60" xml:space="preserve">
<polygon fill="#C22026" points="56.6,35.8 6,35.8 3.1,46.4 6,46.4 6,60 56.6,60 56.6,46.4 59.5,46.4 "/>
<g>
	<polygon fill="#C22026" points="18.8,33.2 7.3,13 0,17.1 9,33.2 	"/>
	<polygon fill="#C22026" points="29.3,33.2 29.3,30.9 26.4,30.9 26.4,29.8 29.3,29.8 29.3,27.3 26.4,27.3 26.4,26.3 29.3,26.3 
		29.3,23.7 26.4,23.7 26.4,22.7 29.3,22.7 29.3,20.1 26.4,20.1 26.4,19.1 29.3,19.1 29.3,16.6 26.4,16.6 26.4,15.5 29.3,15.5 
		29.3,13 26.4,13 26.4,12 29.3,12 29.3,9.4 26.4,9.4 26.4,8.4 29.3,8.4 29.3,5.8 26.4,5.8 26.4,4.8 29.3,4.8 29.3,0.9 21.5,0.9 
		21.5,33.2 	"/>
</g>
<path fill="#C22026" d="M54.1,33.2v-5.9h-3.7l7.5-23c0.4-1.2-1.5-2.9-4.2-3.8s-5.2-0.6-5.6,0.6l-8.6,26.2h-9.2v5.9H54.1z"/>
</svg>
