<?xml version="1.0" encoding="utf-8"?>
<!-- Generator: Adobe Illustrator 17.1.0, SVG Export Plug-In . SVG Version: 6.00 Build 0)  -->
<!DOCTYPE svg PUBLIC "-//W3C//DTD SVG 1.1//EN" "http://www.w3.org/Graphics/SVG/1.1/DTD/svg11.dtd">
<svg version="1.1" id="Layer_1" xmlns="http://www.w3.org/2000/svg" xmlns:xlink="http://www.w3.org/1999/xlink" x="0px" y="0px"
	 width="60px" height="60px" viewBox="0 0 60 60" enable-background="new 0 0 60 60" xml:space="preserve">
<g>
	<circle fill="#C22026" cx="8.2" cy="7.9" r="5.3"/>
	<circle fill="#C22026" cx="20" cy="3" r="3"/>
	<path fill="#C22026" d="M25,20c-0.1-0.9,0.6-2.4,1.4-3.8c1.1-1.6,1.9-3.1,1.6-6.2s-4-5.8-5.3-3.3s-3.1,1.9-3.1,1.9
		C18,8,17,9.5,18.4,10.5c0.6,0.4,2.1,0.7,2.8,0.8c-3.2,7.9-8.4,6.4-8.4,6.4c-0.4-1.8-1.4-3.1-3.6-2.9C2.4,15,2.7,29.4,3.5,32.9
		s3,3.9,3,3.9c1,4.3,1.7,13.7,0.1,17.7c-1.6,4,1,5.1,1.5,5.3c0.7,0.2,3.2,1,4.2-2.7c2.4-8.5,1.2-18.4,0.2-22
		c-1.2-4.4-0.7-7.7-0.4-9.4c0.2-0.9,0.4-2.3,0.6-3.7c7.2-0.7,9.2-5.6,9.2-5.6c-0.2,3,0,6.5,1.7,6.4C25.3,22.7,25.1,20.9,25,20z"/>
	<path fill="#C22026" d="M57.1,38.4c0-6.4-5.1-11.6-11.5-11.7v12.1h-9.7c-1-1.6-4.9-8-6-9.7c-1.4-2.3-3.5-2.2-4-2.2h-2.2v2H26l0.1,0
		c0.1,0,1.3-0.1,2.1,1.2c1,1.6,4.4,7.2,5.7,9.3c0.4,4.6,3.4,8.4,7.7,9.9l2.8,2.7l-1.2,1.3c-0.6-0.4-1.2-0.6-2-0.6
		c-2,0-3.6,1.6-3.6,3.6s1.6,3.6,3.6,3.6s3.6-1.6,3.6-3.6c0-0.7-0.2-1.4-0.5-1.9l1.3-1.3l1.2,1.2c-0.4,0.6-0.6,1.3-0.6,2
		c0,2,1.6,3.6,3.6,3.6s3.6-1.6,3.6-3.6s-1.6-3.6-3.6-3.6c-0.7,0-1.4,0.2-1.9,0.5L46.6,52l2.4-2.5C53.7,48,57.1,43.6,57.1,38.4z
		 M41.2,58.4c-1.1,0-2.1-0.9-2.1-2.1s0.9-2.1,2.1-2.1c1.1,0,2.1,0.9,2.1,2.1S42.3,58.4,41.2,58.4z M49.8,54.2c1.1,0,2.1,0.9,2.1,2.1
		c0,1.1-0.9,2.1-2.1,2.1c-1.1,0-2.1-0.9-2.1-2.1S48.7,54.2,49.8,54.2z M45.5,50.9l-1-0.9c0.3,0,0.6,0,1,0c0.3,0,0.6,0,0.9,0
		L45.5,50.9z"/>
</g>
</svg>
