<?xml version="1.0" encoding="utf-8"?>
<!-- Generator: Adobe Illustrator 17.1.0, SVG Export Plug-In . SVG Version: 6.00 Build 0)  -->
<!DOCTYPE svg PUBLIC "-//W3C//DTD SVG 1.1//EN" "http://www.w3.org/Graphics/SVG/1.1/DTD/svg11.dtd">
<svg version="1.1" id="Layer_1" xmlns="http://www.w3.org/2000/svg" xmlns:xlink="http://www.w3.org/1999/xlink" x="0px" y="0px"
	 width="60px" height="60px" viewBox="0 0 60 60" enable-background="new 0 0 60 60" xml:space="preserve">
<path fill="#C22026" d="M30,0C13.5,0,0,13.5,0,30s13.5,30,30,30s30-13.5,30-30S46.5,0,30,0z M54.6,18.7l-2.7-4.6
	C52.9,15.5,53.8,17.1,54.6,18.7z M13.6,51.5c0,0,0-0.1,0-0.1c0.2-1-1.2-2.7-1.3-3.3c-0.1-0.6,0.8-1.1,1.2-1.4
	c0.4-0.3-0.3-1.4-0.4-2.4s0.5-3,0.4-3.9c-0.1-0.9-3-1.6-3.4-2C9.6,38,3.5,32,3.5,32l-0.4,1.2C3,32.2,2.9,31.1,2.9,30
	c0-4.1,0.9-8,2.5-11.4c0.2,0.7,0.4,1.1,0.7,0.6c0.9-1.2,6.6-2.8,7.2-3.5c0.5-0.7,2.7-2,3-3.2c0.2-1-0.5-4.3-0.8-5.3
	c4.2-2.7,9.1-4.2,14.4-4.2c5.8,0,11.2,1.9,15.6,5c-0.8,0.1-1.9,0.2-2.5-0.1c-1.1-0.5-4.9,2.5-5,2.2c-0.1-0.2,0.6-0.3,0.5-1.4
	c-0.1-1.1-5.4-0.9-6.4-0.7c-1.1,0.2-3.6,2.7-4,3.2c-0.4,0.5,0.9,1,0.9,1c-0.3,0,0.4,1.7-0.7,2.2c-0.4,0.2-1.8,0.7-2,0.5
	c-0.3-0.1-0.5-1.1-0.8-1.5c-0.3-0.4-0.5-1.1-0.7-1.8c-0.3-0.7-0.9,0.9-1.2,1.3c-0.3,0.4-1.4,1.2-1.6,1.6c-0.2,0.4,1.2,0.1,1.8,0.1
	c0.5-0.1,1.6,0.8,1.4,0.8c-0.2,0-0.1,2.1-0.7,1.6c-0.6-0.5-2.5,0.7-2.9,1.1c-0.4,0.5,0.1,1.6,0.5,2.3c0.5,0.7,2.8-0.4,3.5-0.7
	c0.7-0.3,0.6-0.9,0.9-1.3c0.3-0.5,2.2,0,3-0.2c0.8-0.2,3.3,2.1,3.8,2.3c0.5,0.2,0.5-0.7,0.7-0.9c0.1-0.2,1.7,1.2,2.2,1.2
	s0.3-0.9,0.7-0.8c0.3,0.1,1.9,1.1,2.6,1.2c0.7,0.2-0.5,1-0.8,1.3c-0.3,0.3-1.1-0.1-1.8-0.5c-0.7-0.4-2.8,0.5-3.5,0.5
	c-0.7,0-1.4-0.6-1.7-1.1s-2.7-1.6-3.8-1.8c-1.1-0.2-3.5,1.4-4.1,1.5c-0.6,0.1-1.4,0.1-2.3,0.2c-0.9,0.1-0.7,1.3-1.1,2
	c-0.4,0.7-1.3,1.3-1.9,2.3c-0.6,1,0,4.3-0.3,5.7c-0.3,1.4,2.9,4.1,4.5,3.7c1.6-0.4,4.9-2,6.6,0.1c-0.7,1.8,1.9,3.8,2.2,4.7
	c0.3,0.9-1.2,3.6-0.3,5.1c0.9,1.4,1,4.3,2.4,4.7c4.2,0.9,7-4.5,7.4-5.3c0.4-0.8,0.7,0.3,0.5,1.1c-0.2,0.7,2,0.5,2.5,0
	s1.6-2.4,1.7-3.5c0.1-1.1-2.6,0.9-3.1,0.8c-0.5-0.1,0-2.4,0.1-3.7c0.1-1.3,4.6-6.1,4.5-7.2c-0.1-1.1-2.7-0.7-3.7-1.1
	c-1-0.5-2.3-5.4-2-6.2c0.3-0.7,2.5,5.1,4.3,5.7c1.8,0.7,3.2-4.1,3.7-4.9c0.5-0.7,3.4,1.5,3.7,3.5c0.3,2,2.2,4.3,2.5,4
	c0.3-0.3,1-6,1-6l0.4-0.9c0.2,1.2,0.3,2.4,0.3,3.6c0,1.9-0.2,3.8-0.6,5.6c-0.2,0.3-0.5,0.6-0.7,0.8c-0.7,0.4-3.7,3.3-4,3.9
	c-0.3,0.6,0.5,0.6,0.5,1.2c0.1,0.6-0.7,2.6-1.6,3.2c-1,0.7-1.8,1-2.3,1.7c-0.5,0.7-1.1,4.5-1.1,4.5v0c-4.7,3.9-10.7,6.2-17.3,6.2
	C23.8,57.1,18.1,55,13.6,51.5z M34.1,11.9l-1.8,0.6l1.1-2.2L34.1,11.9z"/>
</svg>
