<?xml version="1.0" encoding="utf-8"?>
<!-- Generator: Adobe Illustrator 17.1.0, SVG Export Plug-In . SVG Version: 6.00 Build 0)  -->
<!DOCTYPE svg PUBLIC "-//W3C//DTD SVG 1.1//EN" "http://www.w3.org/Graphics/SVG/1.1/DTD/svg11.dtd">
<svg version="1.1" id="Layer_1" xmlns="http://www.w3.org/2000/svg" xmlns:xlink="http://www.w3.org/1999/xlink" x="0px" y="0px"
	 width="60px" height="60px" viewBox="0 0 60 60" enable-background="new 0 0 60 60" xml:space="preserve">
<g>
	<circle fill="#C22026" cx="30.6" cy="5.4" r="5.4"/>
	<path fill="#C22026" d="M40.3,24.4c0,0-6.5-1.5-9.7-6.4c-2.9-4.4-3.2-6.6-4.9-7.1c-2.2-0.6-8.9,0-7.5,24.4c0,0,0.7,9.7-6.8,17.1
		c-2.6,2.5-1.1,3.9-0.7,4.2s2.2,1.5,4.9-1.2c2.2-2.3,5.8-8,6.9-13.5c0,0,3.7,7.2,0.2,15.3c0,0-1.2,2.3,0.8,2.8c2.9,0.8,5-3.8,5.4-6
		c0.2-1,1.5-8.1-2.4-16c-3.3-6.7,1-16.1,1-16.1s6,7.5,13.8,6.9c1.4-0.1,2.3-0.9,2.4-1.8C43.9,24.7,41.1,24.6,40.3,24.4z"/>
	<path fill="#C22026" d="M50.1,59.7c0.1,0.2,0.3,0.4,0.6,0.3l0,0c0.3-0.1,0.4-0.3,0.4-0.5l-8.5-34c-0.1-0.2-0.3-0.4-0.6-0.3l0,0
		c-0.3,0.1-0.4,0.3-0.4,0.5L50.1,59.7z"/>
</g>
</svg>
