<?xml version="1.0" encoding="utf-8"?>
<!-- Generator: Adobe Illustrator 17.1.0, SVG Export Plug-In . SVG Version: 6.00 Build 0)  -->
<!DOCTYPE svg PUBLIC "-//W3C//DTD SVG 1.1//EN" "http://www.w3.org/Graphics/SVG/1.1/DTD/svg11.dtd">
<svg version="1.1" id="Layer_1" xmlns="http://www.w3.org/2000/svg" xmlns:xlink="http://www.w3.org/1999/xlink" x="0px" y="0px"
	 width="60px" height="60px" viewBox="0 0 60 60" enable-background="new 0 0 60 60" xml:space="preserve">
<g>
	<path fill="#C30000" d="M48.8,23.4c3.8,1.2,7.8-1.3,7.8-1.3c-4.1-1.5-2.3-9.2-9.2-10.6s-11,7.8-11.6,8.7c-1.5,2.2-3.1,1.5-5.2,0
		C21,13.3,8.4,15,8.4,15c-1.2,5.6,2.4,11.3,3.3,12.6c0.9,1.2,2.6,2.4,3.4,6.4c1.5,7.2,11.4,5.5,12.4,7.1c1.1,1.7-3.5,6-11.9,2.6
		c-1.7-0.7-8.1-5.7-11.2,0.9c-3.2,7,2.5,16.1,3,15.4c0.5-0.7,5.1-5.7,12.9-5.6s24.3,0,29.6-6.8c5.2-6.8,5.4-14.3,1.1-19.6
		C48.6,25,48.8,23.4,48.8,23.4z M49.7,18.7c-0.6,0-1.2-0.5-1.2-1.2c0-0.6,0.5-1.2,1.2-1.2s1.2,0.5,1.2,1.2
		C50.9,18.2,50.4,18.7,49.7,18.7z"/>
	<path fill="#C30000" d="M39.9,11.3c0.7-0.3-10-11-19.8-11.3l0.7,13.3c0,0,8.7,1.6,12.6,5.8C33.3,19.1,37.6,12.3,39.9,11.3z"/>
</g>
</svg>
