<?xml version="1.0" encoding="utf-8"?>
<!-- Generator: Adobe Illustrator 17.1.0, SVG Export Plug-In . SVG Version: 6.00 Build 0)  -->
<!DOCTYPE svg PUBLIC "-//W3C//DTD SVG 1.1//EN" "http://www.w3.org/Graphics/SVG/1.1/DTD/svg11.dtd">
<svg version="1.1" id="Layer_1" xmlns="http://www.w3.org/2000/svg" xmlns:xlink="http://www.w3.org/1999/xlink" x="0px" y="0px"
	 width="60px" height="60px" viewBox="0 0 60 60" enable-background="new 0 0 60 60" xml:space="preserve">
<g>
	<polygon fill="#C22026" points="46.9,8.6 42.2,25.1 25.2,25.1 25.2,29.2 45.8,29.2 45.8,25.1 50.5,8.6 	"/>
	<polygon fill="#C22026" points="40.2,60 40.2,34.7 34.1,34.7 31.7,34.7 25.2,34.7 25.2,29.2 57.2,29.2 57.2,34.7 51.8,34.7 
		51.8,60 	"/>
	<g>
		<circle fill="#C22026" cx="18.6" cy="6.9" r="6.9"/>
		<path fill="#C22026" d="M16.5,27.2c0,1.1,0.9,2,2,2h15.2c1.1,0,2-0.9,2-2l0,0c0-1.1-0.9-2-2-2H18.5C17.4,25.2,16.5,26.1,16.5,27.2
			L16.5,27.2z"/>
		<path fill="#C22026" d="M6.9,35.9l2.2-14.8c0.5-3.3,3.6-5.6,6.9-5.1s5.6,3.6,5.1,6.9l-1.9,12.4h8.4c1.3,0,2.4,0.5,3.2,1.3
			c0.7,0.6,1.1,1.5,1,2.4c0,0,0,0,0,0.1c0,0.3-0.1,0.6-0.1,0.9l-2.9,17.3c-0.3,1.8-2,2.9-3.7,2.6c-1.8-0.3-2.9-2-2.6-3.7l2.2-13.3
			H12.8c-0.1,0-0.1,0-0.2,0h-0.1c-0.2,0-0.3,0-0.5,0h-0.1C8.7,42.3,6.4,39.2,6.9,35.9z"/>
		<g>
			<polygon fill="#C22026" points="5.5,25.2 5.5,42.7 19.9,42.7 19.9,45.4 13.1,45.4 13.1,51.9 11.8,51.9 11.8,55.9 15,55.9 
				15,57.1 7.7,57.1 7.7,55.9 10.9,55.9 10.9,51.9 9.6,51.9 9.6,45.4 5.5,45.4 2.8,45.4 2.8,42.7 2.8,25.2 			"/>
			<circle fill="#C22026" cx="14.6" cy="58.8" r="0.9"/>
			<circle fill="#C22026" cx="11.4" cy="58.8" r="0.9"/>
			<circle fill="#C22026" cx="7.9" cy="58.8" r="0.9"/>
		</g>
	</g>
</g>
</svg>
