<?xml version="1.0" encoding="utf-8"?>
<!-- Generator: Adobe Illustrator 17.1.0, SVG Export Plug-In . SVG Version: 6.00 Build 0)  -->
<!DOCTYPE svg PUBLIC "-//W3C//DTD SVG 1.1//EN" "http://www.w3.org/Graphics/SVG/1.1/DTD/svg11.dtd">
<svg version="1.1" id="Layer_1" xmlns="http://www.w3.org/2000/svg" xmlns:xlink="http://www.w3.org/1999/xlink" x="0px" y="0px"
	 width="70px" height="60px" viewBox="0 0 70 60" enable-background="new 0 0 70 60" xml:space="preserve">
<path fill="#C22026" d="M59.1,13.2c0,11.7,0,23.3,0,35c3.7,0,7.3,0,10.9,0c0-11.7,0-23.3,0-35C66.4,13.2,62.7,13.2,59.1,13.2z
	 M63.4,46c-1.2,0-2.2-1-2.2-2.2c0-1.2,1-2.2,2.1-2.2c1.2,0,2.2,0.9,2.2,2.1C65.6,45,64.7,46,63.4,46z"/>
<path fill="#C22026" d="M0,48.2c3.6,0,7.2,0,10.9,0c0-11.7,0-23.3,0-35c-3.6,0-7.3,0-10.9,0C0,24.9,0,36.5,0,48.2z M6.6,41.7
	c1.2,0,2.2,1,2.1,2.2c0,1.2-1,2.2-2.2,2.2c-1.2,0-2.2-1-2.2-2.2C4.4,42.6,5.4,41.6,6.6,41.7z"/>
<path fill="#C22026" d="M52.9,18.9c-2.2-1.3-4.4-2.7-6.7-4c-3.1-1.8-6.3-3.6-9.5-5.5c-1.2-0.7-2.3-0.6-3.3,0.3
	c-2.1,1.8-5.8,5.3-9.7,8.5c-0.1,0-4.8,3.5-2.9,6.2c0,0,0.1,0.1,0.1,0.1c2.2,2.5,5.9-0.2,9.2-2.2v0c1.2-0.7,2.4-1.4,3.5-2.1
	c1.4-0.8,1.5-0.8,2.6,0.4c2.3,2.4,4.5,4.8,6.7,7.2c2.6,2.8,5.2,5.6,7.8,8.5c0.6,0.6,1.2,1,2.1,0.9c1.4,0,3.4,0,4,0
	c0-5.8,0-11.6,0-17.4c-0.3,0-0.6-0.1-0.8-0.1C54.9,19.9,53.8,19.5,52.9,18.9z"/>
<path fill="#C22026" d="M49.1,37.3c-2.5-2.7-5-5.4-7.5-8.1L40,27.5c-1.7-1.8-3.4-3.7-5.1-5.5c-0.1-0.1-0.1-0.1-0.1-0.2
	c-0.1,0-0.1,0.1-0.2,0.1c-0.9,0.5-1.7,1-2.6,1.5l-2,1.2c-0.1,0-0.1,0.1-0.2,0.1c-2.2,1.3-4.5,2.7-6.7,2.7c-1.4,0-2.7-0.6-3.6-1.7
	l-0.1-0.2c-2.2-3.1,0.2-6.5,3.2-8.8c1.4-1.2,2.8-2.4,4.2-3.6c-0.3-0.1-0.6-0.1-1.1,0.1c-2.1,0.9-8.9,5.9-10.2,6.5
	c-1.4,0.7-2.3,0.3-2.3,0.3c0,5.7,0,11.4,0,17.2c2-0.4,3.1,1,4.2,2.2c0.3,0.3,0.6,0.7,0.9,1c2.7,2.7,5.4,5.4,8.1,8.1
	c1.1,1.1,2.5,1.7,4,1.8c1.4,0.1,2.5-0.4,3.4-1.5c1.1,1.2,2.4,1.7,4,1.5c1.6-0.2,2.6-1.2,3.3-2.7c2.7,1.1,5.6,0.7,6.1-2.4
	c0.3,0.1,0.5,0.2,0.8,0.4c2.1,0.9,4.2-0.1,4.5-2.4c0-0.1,0-0.2,0-0.4c0-0.2-0.1-0.5-0.1-0.7C52.1,40.4,49.4,37.7,49.1,37.3z"/>
</svg>
