<svg xmlns="http://www.w3.org/2000/svg" height="1024" width="1024" viewBox="0 0 1024 1024">
  <path
      d="M804.223 510.963c0 178.7-144.9 324.3-324.3 324.3-178.7 0-324.3-144.9-324.3-324.3s144.9-324.3 324.3-324.3c178.7-.1 324.3 144.9 324.3 324.3M64.823 488.463h64l-66.1 163.9h-64M881.623 488.463h35.2l-65.4 163.9h-35.2M1010.423 488.463h18.3l-65.5 163.9h-18.3"
      fill="#ce2127"/>
  <path
      d="M756.423 488.463h-57.7s-4.2 0-5.6 3.5l-31.7 97.8-31.7-97.8c-1.4-3.5-5.6-3.5-5.6-3.5h-111.1c-2.1 0-4.2 2.1-4.2 4.2v33.1c0-26-28.1-37.3-44.3-37.3-36.6 0-61.2 23.9-68.9 61.2-.7-24.6-2.1-33.1-9.1-42.2-2.8-4.2-7-7.7-12-11.3-9.8-5.6-18.3-7.7-37.3-7.7h-21.8s-4.2 0-5.6 3.5l-20.4 50v-49.2c0-2.1-2.1-4.2-4.2-4.2h-51.4s-4.2 0-5.6 3.5l-21.1 52.1s-2.1 4.9 2.8 4.9h19.7v99.1c0 2.1 2.1 4.2 4.2 4.2h50.7c2.1 0 4.2-2.1 4.2-4.2v-99.2h19.7c11.3 0 14.1 0 18.3 2.1 2.8.7 4.9 2.8 6.3 5.6 2.8 4.9 3.5 11.3 3.5 28.8v61.9c0 2.1 2.1 4.2 4.2 4.2h49.2s5.6 0 7.7-5.6l10.6-26.7c14.1 20.4 38 32.4 67.5 32.4h6.3s5.6 0 7.7-5.6l19-46.4v47.8c0 2.1 2.1 4.2 4.2 4.2h50s5.6 0 7.7-5.6c0 0 19.7-49.2 19.7-50 .7-4.2-4.2-4.2-4.2-4.2h-17.6v-84.4l55.6 138.6c2.1 5.6 7.7 5.6 7.7 5.6h58.4s5.6 0 7.7-5.6l61.9-153.4c2.9-4.2-3.4-4.2-3.4-4.2zm-247.7 104.1h-33.1c-13.4 0-23.9-10.6-23.9-23.9 0-13.3 10.6-23.9 23.9-23.9h9.1c13.4 0 23.9 10.6 23.9 23.9v23.9h.1z"
      fill="#fff"/>
</svg>