<svg width="1em" height="1em" viewBox="0 0 24 24" fill="none" xmlns="http://www.w3.org/2000/svg"><path fill-rule="evenodd" clip-rule="evenodd" d="M15 22h9l-2.738-2.698A10.708 10.708 0 0024 12.146c0-4.255-2.487-7.933-6.097-9.706L17.008 2l-1.785 3.528.895.44C18.423 7.1 20 9.442 20 12.145a6.81 6.81 0 01-1.575 4.36L15 13.131V22zM9 2H0l2.738 2.698A10.708 10.708 0 000 11.854c0 4.255 2.487 7.933 6.097 9.706l.895.44 1.785-3.528-.895-.44C5.577 16.9 4 14.558 4 11.855a6.81 6.81 0 011.575-4.36L9 10.869V2z" fill="currentColor"></path></svg>