<svg width="1em" height="1em" viewBox="0 0 24 24" fill="none" xmlns="http://www.w3.org/2000/svg" focusable="false" role="img"><path fill-rule="evenodd" clip-rule="evenodd" d="M4.625 6H3a3 3 0 00-3 3v12a3 3 0 003 3h16a3 3 0 003-3v-2a2 2 0 002-2v-4a2 2 0 00-2-2V9a3 3 0 00-2.746-2.99L17 0 4.625 6zm4.584 0h7.905l-1.216-3.243L9.209 6zM19 8H3a1 1 0 00-1 1v12a1 1 0 001 1h16a1 1 0 001-1v-2h-4a4 4 0 010-8h4V9a1 1 0 00-1-1zm-5 7a2 2 0 012-2h6v4h-6a2 2 0 01-2-2zm3 0a1 1 0 11-2 0 1 1 0 012 0z" fill="#000"></path></svg>