<?xml version="1.0" encoding="utf-8"?>
<!-- Generator: Adobe Illustrator 18.1.1, SVG Export Plug-In . SVG Version: 6.00 Build 0)  -->
<!DOCTYPE svg PUBLIC "-//W3C//DTD SVG 1.1//EN" "http://www.w3.org/Graphics/SVG/1.1/DTD/svg11.dtd">
<svg version="1.1" id="Layer_1" xmlns="http://www.w3.org/2000/svg" xmlns:xlink="http://www.w3.org/1999/xlink" x="0px" y="0px"
	 viewBox="-481 355 60 60" enable-background="new -481 355 60 60" xml:space="preserve">
<path fill="#C22026" d="M-426.9,399.9l-0.1-0.4l-0.3-0.2c-3-3.8-13.9-8.2-16-9h-0.1h-0.1v-6.2c3.2-3.9,5.4-9.9,5.4-15.3
	c0.1-9.1-6-13.8-12.8-13.8c-5.4,0-12.9,4.7-12.9,13.8c0,5.4,2.2,11.4,5.4,15.3v6.2c0,0-13.2,4.9-16.4,9.2
	c-3.2,4.3-4.3,15.5-4.3,15.5h28.2l28,0C-422.9,415-424,404.4-426.9,399.9z"/>
<path fill="#FFFFFF" d="M-451.5,396.7l-3.2,18.3l8.5,0l-3.4-18.3l2.4-3.5c0.7,0.1,1.4,0.2,2.1,0.3l-3.6-2.2h-3.8l-3.3,2.2
	c0.7-0.1,1.3-0.2,2-0.3L-451.5,396.7z"/>
</svg>
