<?xml version="1.0" encoding="utf-8"?>
<!-- Generator: Adobe Illustrator 17.1.0, SVG Export Plug-In . SVG Version: 6.00 Build 0)  -->
<!DOCTYPE svg PUBLIC "-//W3C//DTD SVG 1.1//EN" "http://www.w3.org/Graphics/SVG/1.1/DTD/svg11.dtd">
<svg version="1.1" id="Layer_1" xmlns="http://www.w3.org/2000/svg" xmlns:xlink="http://www.w3.org/1999/xlink" x="0px" y="0px"
	 width="60px" height="60px" viewBox="0 0 60 60" enable-background="new 0 0 60 60" xml:space="preserve">
<path fill="#C30000" d="M51.3,48.8V34.9c0-2.2-1-4-2.9-4.9c-0.5-0.2-1-0.4-1.5-0.5c0-0.1,0-0.1,0-0.2c-1.2-2.9-4.8-3.5-8.6-3.3
	c-2.7-2.6-6.1-4.5-9.9-5.2c0.3-3.4,0.5-7,0.4-8.8c-0.3-4-1.9-4.9-2.9-5V4.7c0-0.4,0-2-1.2-3.3C24.1,0.8,23,0,21.1,0h-8.8
	c-0.8,0-1.4,0.6-1.4,1.4s0.6,1.4,1.4,1.4h8.8c0.7,0,1.2,0.2,1.5,0.5C23,3.8,23,4.5,23,4.5l0,16C12.8,21.2,4.7,29.8,4.7,40.2
	C4.7,51.1,13.6,60,24.5,60c10.3,0,18.8-7.9,19.7-18h4.2v6.8c-2.3,0.6-4,2.8-4,5.3c0,3,2.5,5.5,5.5,5.5s5.5-2.5,5.5-5.5
	C55.3,51.5,53.6,49.4,51.3,48.8z M25.9,32.3l2.5,0l-2.5,4.6V32.3z M26.5,37.8l2.9-5.5l8.3,0l-10.6,6.2C26.9,38.2,26.7,38,26.5,37.8z
	 M21.3,40.1H7.5c0-2.6,0.6-5,1.7-7.2l12.2,6.6C21.4,39.7,21.3,39.9,21.3,40.1z M21.4,41.1c0.1,0.2,0.1,0.4,0.2,0.6l-11.9,7
	c-1.3-2.2-2.1-4.8-2.2-7.5H21.4z M24,43.3v13.8c-2.5-0.1-4.8-0.7-6.9-1.7l6.6-12.2C23.7,43.3,23.9,43.3,24,43.3z M24.9,43.3
	c0.2,0,0.3-0.1,0.5-0.1l7,12c-2.2,1.2-4.8,1.9-7.5,2V43.3z M27.9,39.1l11.6-6.8c1.1,2,1.7,4.3,1.9,6.8H27.9z M32.4,26.8l0.7-1.3
	c0.5,0.3,0.9,0.6,1.3,0.9C33.7,26.6,33,26.7,32.4,26.8z M32.2,25.1l-1.1,2c-2.1,0.5-3.5,1-3.5,1s0.2-1.9,0.5-4.4
	C29.6,24,30.9,24.5,32.2,25.1z M23,30.9C23,30.9,23,30.9,23,30.9C23,30.9,23,30.9,23,30.9l0,6.3l-6.8-11.7c2.1-1.2,4.4-1.9,6.8-2.1
	L23,30.9z M15.4,25.9l7,12c-0.2,0.2-0.4,0.4-0.6,0.7L9.6,32.1C11,29.5,13,27.4,15.4,25.9z M10.2,49.4l12-7c0.1,0.1,0.3,0.3,0.5,0.4
	L16.2,55C13.8,53.7,11.7,51.7,10.2,49.4z M33.2,54.7l-6.9-11.9c0.2-0.1,0.3-0.3,0.5-0.4L39,48.9C37.6,51.3,35.6,53.3,33.2,54.7z
	 M39.5,48.1L28.2,42h13.2C41.1,44.2,40.5,46.2,39.5,48.1z M44.2,39.1c-0.1-2.4-0.7-4.7-1.6-6.8l3,0c0,0,0.8,0,1.5,0.4
	c0.9,0.4,1.3,1.1,1.3,2.3v4.2H44.2z M49.8,57.6c-2,0-3.6-1.6-3.6-3.6c0-1.5,0.9-2.7,2.1-3.3v3.3c0,0.8,0.6,1.4,1.4,1.4
	s1.4-0.6,1.4-1.4v-3.3c1.2,0.6,2.1,1.8,2.1,3.3C53.4,56,51.8,57.6,49.8,57.6z"/>
</svg>
