<?xml version="1.0" encoding="utf-8"?>
<!-- Generator: Adobe Illustrator 17.1.0, SVG Export Plug-In . SVG Version: 6.00 Build 0)  -->
<!DOCTYPE svg PUBLIC "-//W3C//DTD SVG 1.1//EN" "http://www.w3.org/Graphics/SVG/1.1/DTD/svg11.dtd">
<svg version="1.1" id="Layer_1" xmlns="http://www.w3.org/2000/svg" xmlns:xlink="http://www.w3.org/1999/xlink" x="0px" y="0px"
	 width="60px" height="60px" viewBox="0 0 60 60" enable-background="new 0 0 60 60" xml:space="preserve">
<path fill="#C22026" d="M54.1,44.9L54,44.5l-0.3-0.2c-3-3.8-13.9-8.2-16-9l-0.1,0l-0.1,0v-6.2c3.2-3.9,5.4-9.9,5.4-15.3
	C43,4.7,36.9,0,30.1,0c-5.4,0-12.9,4.7-12.9,13.8c0,5.4,2.2,11.4,5.4,15.3v6.2c0,0-13.2,4.9-16.4,9.2S1.9,60,1.9,60h28.2l28-0.1
	C58.1,59.9,57,49.4,54.1,44.9z"/>
</svg>
