<svg width="1000" height="1000" viewBox="0 0 1000 1000" xmlns="http://www.w3.org/2000/svg"><g fill="none" fill-rule="evenodd"><path d="m519.41 359v-22.487c26.473-.282 52.74-1.253 78.8-2.913 42.473-2.791 84.34-7.464 125.42-13.985 3.653 12.879 6.882 26.02 9.683 39.39h38.976c-3.066-15.608-6.679-30.938-10.829-45.954 45.721-8.63 90.38-19.593 133.71-32.843 13.926 24.915 25.561 51.28 34.619 78.8h39.993c-5.068-16.846-11.06-33.458-17.979-49.8-24.7-58.3-60-110.7-105-155.7-44.9-45-97.3-80.3-155.7-105-60.4-25.5-124.6-38.5-190.7-38.5-66.1 0-130.3 13-190.8 38.6-58.3 24.7-110.7 60-155.7 105-45 44.9-80.3 97.3-105 155.7-6.883 16.302-12.855 32.881-17.906 49.7h40.02c8.702-26.438 19.782-51.806 32.985-75.849 19.862 5.927 71.58 20.232 146.14 32.58-3.864 14.157-7.251 28.59-10.154 43.27h38.972c2.678-12.706 5.744-25.2 9.192-37.462 16.957 2.375 34.835 4.593 53.55 6.562 46.747 4.839 93.35 7.662 139.6 8.34v22.56h38.1m0 337.8v67.925c56.33-1.256 117.86-6.082 183.26-16.32 6.926-16.375 13.03-33.574 18.317-51.605h39.972c-4.078 15.15-8.677 29.78-13.799 43.897 50.79-9.655 103.64-22.647 157.99-39.775.683-1.37 1.359-2.744 2.028-4.122h42.11c-24.551 55.953-58.944 106.27-102.37 149.6-45 45-97.4 80.3-155.7 105-60.5 25.6-124.7 38.6-190.8 38.6-66.1 0-130.3-13-190.7-38.5-58.4-24.7-110.8-60-155.7-105-43.45-43.45-77.858-93.8-102.41-149.7h42.05c1.08 2.223 2.177 4.435 3.291 6.637 20.511 7.495 80.892 27.802 169.87 43.06-5.961-15.9-11.246-32.463-15.858-49.696h39.974c5.785 19.835 12.556 38.665 20.319 56.5 5.895.796 11.887 1.564 17.974 2.299 43.4 5.242 94.63 9.135 152.1 9.446v-68.25h38.1m76.05 245.04c117.2-25.18 217.66-95.94 281.85-192.75-48.725 13.841-98.05 25.09-147.69 33.674-31.27 65.812-75.901 118.67-134.16 159.08m86.78-151.71c-29.319 4.055-58.716 7.179-88.13 9.36-24.912 1.867-49.825 3.063-74.7 3.59v139.06c71.12-34.795 125.26-85.22 162.83-152.01m-81.65-730.85c113.27 25.732 210.51 94.14 273.85 187.35-41.99 12.439-83.63 22.18-124.42 29.683-12.442-35.752-28.12-69.43-46.913-100.52-28.818-47.641-63.821-87.18-102.51-116.51m111.17 223.47c-67.835 10.368-132.77 14.792-192.36 15.509v-242.46c57.54 23.888 110.61 72.903 151 139.79 16.34 27.03 30.16 56.21 41.36 87.16m-292.18 661.9c-121.59-22.04-226.39-92.88-293.3-191.43 36.03 10.747 89.9 24.397 158.35 34.783 31.69 64.84 76.58 116.89 134.95 156.64m-87.75-150.34c49.33 5.69 99.34 8.73 149.47 9.05v133.78c-64.32-33.894-114.04-81.3-149.47-142.83m85.55-738.58c-121.72 22.688-226.42 94.32-292.86 193.63 24.17 6.761 72.19 18.987 136.95 29.535 12.538-36.417 28.424-70.7 47.521-102.3 30.27-50.04 67.36-91.14 108.38-120.86m-117.45 228.91c14.959 2.04 30.604 3.945 46.87 5.647 39.26 4.105 84.64 7.245 134.5 7.934v-236.51c-53.13 25.426-101.89 72.22-139.6 134.67-16.539 27.323-30.496 56.878-41.77 88.25m-149.31 331.84l-57.42-181.49h46.655l34.01 118.95 31.27-118.95h46.31l30.25 118.95 34.692-118.95h47.34l-58.28 181.49h-46.14l-31.27-116.72-30.762 116.72h-46.655m272 0l-57.42-181.49h46.655l34.01 118.95 31.27-118.95h46.31l30.25 118.95 34.692-118.95h47.34l-58.28 181.49h-46.14l-31.27-116.72-30.762 116.72h-46.655m272 0l-57.42-181.49h46.655l34.01 118.95 31.27-118.95h46.31l30.25 118.95 34.692-118.95h47.34l-58.28 181.49h-46.14l-31.27-116.72-30.762 116.72h-46.655" fill="#4a4a4a"/></g></svg>