<svg version="1.0" xmlns="http://www.w3.org/2000/svg"
 width="512.000000pt" height="512.000000pt" viewBox="0 0 512.000000 512.000000"
 preserveAspectRatio="xMidYMid meet">

<g transform="translate(0.000000,512.000000) scale(0.100000,-0.100000)"
fill="#000000" stroke="none">
<path d="M3105 5108 c-771 -87 -1411 -671 -1565 -1428 l-17 -85 -94 -21 c-136
-30 -200 -50 -321 -100 -129 -55 -158 -80 -158 -139 0 -32 6 -48 26 -69 36
-35 83 -34 165 3 371 168 784 190 1179 64 90 -29 342 -151 347 -168 1 -5 -164
-203 -369 -440 -204 -236 -379 -448 -389 -470 -34 -73 -15 -160 47 -216 89
-80 273 -209 314 -220 57 -15 117 0 163 40 17 16 187 207 377 425 l345 395 21
-25 c11 -14 43 -71 71 -127 272 -549 216 -1185 -150 -1680 -80 -109 -241 -267
-357 -349 -302 -215 -699 -324 -1058 -290 -156 15 -246 33 -382 78 -533 177
-946 639 -1060 1187 -85 405 -15 817 196 1168 46 76 47 127 3 163 -47 40 -93
36 -140 -13 -47 -51 -158 -274 -203 -411 -249 -756 20 -1579 669 -2045 114
-82 350 -202 480 -243 217 -69 422 -98 635 -89 364 16 681 124 980 335 116 81
333 296 413 408 152 215 259 456 306 692 l18 87 100 22 c970 210 1593 1184
1377 2152 -202 905 -1052 1513 -1969 1409z m377 -199 c472 -51 903 -314 1165
-711 241 -365 324 -803 233 -1222 -107 -488 -427 -896 -875 -1111 -110 -53
-269 -109 -345 -121 l-40 -7 0 71 c0 171 -37 402 -91 564 -37 112 -122 292
-185 394 l-46 75 59 67 c32 37 101 116 153 175 l95 109 5 -104 c4 -88 9 -109
32 -148 15 -27 42 -54 66 -68 37 -20 52 -22 206 -22 147 0 171 2 206 20 38 20
80 66 94 105 11 30 7 1104 -5 1147 -24 93 -116 179 -209 196 -59 10 -1094 -7
-1142 -19 -49 -13 -97 -54 -119 -104 -15 -33 -19 -66 -19 -180 0 -160 9 -201
52 -251 55 -62 77 -69 226 -66 107 2 132 0 126 -10 -12 -20 -302 -356 -313
-363 -6 -3 -36 11 -67 31 -145 93 -381 185 -569 223 -114 23 -363 46 -406 37
-15 -3 -30 -2 -33 3 -13 20 60 251 121 381 106 228 312 474 523 623 319 225
714 328 1102 286z m517 -815 c21 -26 21 -36 21 -535 l0 -509 -105 0 -105 0 0
215 c0 229 -6 261 -49 285 -42 22 -90 12 -130 -27 -22 -21 -324 -364 -671
-763 -348 -399 -636 -729 -641 -734 -7 -8 -183 118 -209 149 -7 9 175 227 665
796 494 573 677 792 681 815 7 36 -8 70 -40 96 -19 16 -49 18 -258 18 l-238 0
0 105 0 105 223 3 c122 1 360 3 529 5 l307 2 20 -26z"/>
<path d="M621 3166 c-49 -27 -64 -86 -34 -136 38 -66 134 -65 169 1 46 91 -47
184 -135 135z"/>
</g>
</svg>
