<?xml version="1.0" encoding="utf-8"?>
<!-- Generator: Adobe Illustrator 17.0.0, SVG Export Plug-In . SVG Version: 6.00 Build 0)  -->
<!DOCTYPE svg PUBLIC "-//W3C//DTD SVG 1.1//EN" "http://www.w3.org/Graphics/SVG/1.1/DTD/svg11.dtd">
<svg version="1.1" id="Layer_1" xmlns="http://www.w3.org/2000/svg" xmlns:xlink="http://www.w3.org/1999/xlink" x="0px" y="0px"
	 width="64px" height="64px" viewBox="0 0 64 64" enable-background="new 0 0 64 64" xml:space="preserve">
<g>
	<path fill="#BCBBBA" d="M32,0C14.326,0,0,14.328,0,32c0,17.674,14.326,32,32,32s32-14.326,32-32C64,14.328,49.674,0,32,0z
		 M44.598,22.046h-4.546l-0.012-4.542L44.598,22.046z M45.992,46H22.006V25H17v-7h5.006v-1.998h15.986v8.042h8V46z"/>
	<rect x="30" y="30" fill="#BCBBBA" width="3" height="2"/>
	<rect x="34" y="30" fill="#BCBBBA" width="3" height="2"/>
	<rect x="26" y="30" fill="#BCBBBA" width="3" height="2"/>
	<rect x="38" y="30" fill="#BCBBBA" width="3" height="2"/>
	<rect x="30" y="33" fill="#BCBBBA" width="3" height="2"/>
	<rect x="34" y="33" fill="#BCBBBA" width="3" height="2"/>
	<rect x="26" y="33" fill="#BCBBBA" width="3" height="2"/>
	<rect x="38" y="33" fill="#BCBBBA" width="3" height="2"/>
	<rect x="30" y="36" fill="#BCBBBA" width="3" height="2"/>
	<rect x="34" y="36" fill="#BCBBBA" width="3" height="2"/>
	<rect x="26" y="36" fill="#BCBBBA" width="3" height="2"/>
	<rect x="38" y="36" fill="#BCBBBA" width="3" height="2"/>
	<rect x="30" y="39" fill="#BCBBBA" width="3" height="2"/>
	<rect x="34" y="39" fill="#BCBBBA" width="3" height="2"/>
	<rect x="26" y="39" fill="#BCBBBA" width="3" height="2"/>
	<rect x="38" y="39" fill="#BCBBBA" width="3" height="2"/>
	<path fill="#BCBBBA" d="M30.126,20.858c-0.11-0.096-0.248-0.144-0.412-0.144c-0.179,0-0.317,0.051-0.415,0.152
		c-0.099,0.102-0.16,0.239-0.186,0.412h1.198C30.299,21.094,30.237,20.954,30.126,20.858z"/>
	<path fill="#BCBBBA" d="M34,24v-5h-3H18v5h13H34z M31.4,19.274h0.696v3.599H31.4V19.274z M21.032,22.299
		c0.106,0.067,0.234,0.1,0.384,0.1c0.158,0,0.287-0.041,0.386-0.122c0.054-0.044,0.102-0.105,0.143-0.183h0.71
		c-0.019,0.158-0.104,0.318-0.258,0.481c-0.238,0.259-0.572,0.388-1.001,0.388c-0.354,0-0.667-0.109-0.937-0.328
		c-0.271-0.218-0.406-0.573-0.406-1.065c0-0.461,0.122-0.814,0.367-1.06c0.244-0.246,0.562-0.369,0.952-0.369
		c0.231,0,0.44,0.042,0.625,0.125c0.186,0.083,0.339,0.214,0.46,0.394c0.109,0.158,0.18,0.341,0.212,0.55
		c0.019,0.123,0.026,0.298,0.023,0.528h-1.938C20.764,22.005,20.857,22.192,21.032,22.299z M24.544,22.873l-0.458-0.8l-0.463,0.8
		h-0.845l0.908-1.348l-0.869-1.309h0.853l0.444,0.771l0.435-0.771h0.827l-0.874,1.296l0.908,1.36H24.544z M26.469,22.048
		c0.084,0.221,0.24,0.332,0.471,0.332c0.163,0,0.278-0.044,0.347-0.132c0.069-0.088,0.11-0.202,0.125-0.342h0.711
		c-0.017,0.211-0.093,0.412-0.229,0.601c-0.219,0.304-0.542,0.457-0.971,0.457s-0.744-0.127-0.945-0.381
		c-0.202-0.254-0.304-0.583-0.304-0.988c0-0.456,0.112-0.812,0.335-1.065c0.224-0.254,0.531-0.381,0.924-0.381
		c0.334,0,0.607,0.075,0.82,0.225c0.212,0.15,0.338,0.414,0.377,0.793h-0.713c-0.013-0.099-0.046-0.189-0.1-0.269
		c-0.079-0.107-0.2-0.161-0.365-0.161c-0.235,0-0.396,0.116-0.482,0.349c-0.045,0.124-0.068,0.288-0.068,0.492
		C26.4,21.772,26.424,21.929,26.469,22.048z M30.74,22.575c-0.238,0.259-0.572,0.388-1.002,0.388c-0.354,0-0.666-0.109-0.937-0.328
		c-0.271-0.218-0.406-0.573-0.406-1.065c0-0.461,0.122-0.814,0.366-1.06c0.244-0.246,0.562-0.369,0.952-0.369
		c0.231,0,0.439,0.042,0.625,0.125c0.187,0.083,0.34,0.214,0.46,0.394c0.109,0.158,0.18,0.341,0.212,0.55
		c0.02,0.123,0.026,0.298,0.023,0.528h-1.938c0.011,0.267,0.104,0.454,0.278,0.562c0.106,0.067,0.234,0.1,0.384,0.1
		c0.158,0,0.287-0.041,0.387-0.122c0.054-0.044,0.102-0.105,0.143-0.183h0.711C30.979,22.252,30.894,22.413,30.74,22.575z"/>
	<path fill="#BCBBBA" d="M21.371,20.715c-0.179,0-0.317,0.051-0.415,0.152c-0.099,0.102-0.16,0.239-0.186,0.412h1.199
		c-0.013-0.185-0.074-0.325-0.186-0.42C21.673,20.763,21.535,20.715,21.371,20.715z"/>
</g>
</svg>
