<?xml version="1.0" encoding="utf-8"?>
<!-- Generator: Adobe Illustrator 17.0.0, SVG Export Plug-In . SVG Version: 6.00 Build 0)  -->
<!DOCTYPE svg PUBLIC "-//W3C//DTD SVG 1.1//EN" "http://www.w3.org/Graphics/SVG/1.1/DTD/svg11.dtd">
<svg version="1.1" id="Layer_1" xmlns="http://www.w3.org/2000/svg" xmlns:xlink="http://www.w3.org/1999/xlink" x="0px" y="0px"
	 width="64px" height="64px" viewBox="0 0 64 64" enable-background="new 0 0 64 64" xml:space="preserve">
<g>
	<path fill="#C8C5C4" d="M25.497,41.685c3.373-0.01,6.746-0.006,10.12-0.004c0.387,0,0.744-0.043,0.741-0.546
		c-0.003-0.457,0.174-0.936-0.581-1.104c-2.132-0.474-4.242-1.046-6.362-1.575c-1.51-0.377-3.023-0.747-4.64-1.146
		c0,1.283,0.016,2.483-0.007,3.681C24.757,41.531,25.001,41.687,25.497,41.685z"/>
	<path fill="#C8C5C4" d="M32,0C14.327,0,0,14.327,0,32s14.327,32,32,32s32-14.327,32-32S49.673,0,32,0z M45.161,42.387
		c-2.161-0.533-4.291-1.058-6.454-1.592c-0.031,0.207-0.062,0.335-0.068,0.464c-0.08,1.667-1.123,2.688-2.782,2.691
		c-3.531,0.006-7.062,0.007-10.593,0c-1.691-0.003-2.798-1.124-2.805-2.825c-0.005-1.296-0.009-2.593,0.004-3.889
		c0.003-0.328-0.056-0.541-0.421-0.63c-1.74-0.422-4.966-0.857-7.202-1.312v2.961h-2v-0.518c0-3.818,0-7.607,0-11.455v-0.027h2
		v2.415c9.628-2.375,20.878-4.723,30.322-7.083C45.161,28.516,45.161,35.403,45.161,42.387z M51.161,43.955l-4-1.017V21.027l4-0.983
		V43.955z"/>
</g>
</svg>
