<?xml version="1.0" encoding="utf-8"?>
<!-- Generator: Adobe Illustrator 17.0.0, SVG Export Plug-In . SVG Version: 6.00 Build 0)  -->
<!DOCTYPE svg PUBLIC "-//W3C//DTD SVG 1.1//EN" "http://www.w3.org/Graphics/SVG/1.1/DTD/svg11.dtd">
<svg version="1.1" id="Layer_1" xmlns="http://www.w3.org/2000/svg" xmlns:xlink="http://www.w3.org/1999/xlink" x="0px" y="0px"
	 width="64px" height="64px" viewBox="0 0 64 64" enable-background="new 0 0 64 64" xml:space="preserve">
<g>
	<path fill="#BDBCBB" d="M32,0C14.326,0,0,14.328,0,32c0,17.674,14.326,32,32,32s32-14.326,32-32C64,14.328,49.674,0,32,0z
		 M44.598,22.046h-4.546l-0.012-4.542L44.598,22.046z M45.992,46H22.006V25H17v-7h5.006v-1.998h15.986v8.042h8V46z"/>
</g>
<g>
	<path fill="#BDBCBB" d="M24.984,20.715c-0.07-0.066-0.16-0.111-0.268-0.135c-0.081-0.019-0.239-0.027-0.475-0.027h-0.26v1.896
		h0.432c0.162,0,0.278-0.009,0.35-0.027c0.094-0.023,0.171-0.063,0.233-0.119s0.112-0.148,0.151-0.276s0.059-0.303,0.059-0.524
		s-0.02-0.392-0.059-0.51S25.055,20.781,24.984,20.715z"/>
	<path fill="#BDBCBB" d="M22.012,20.572c-0.069-0.013-0.208-0.02-0.416-0.02h-0.279v0.812h0.316c0.228,0,0.38-0.015,0.457-0.045
		s0.137-0.077,0.181-0.141s0.065-0.138,0.065-0.223c0-0.104-0.031-0.19-0.092-0.258S22.105,20.589,22.012,20.572z"/>
	<path fill="#BDBCBB" d="M18,19v5h13v-5H18z M22.836,21.393c-0.064,0.12-0.145,0.214-0.243,0.282s-0.198,0.113-0.3,0.136
		c-0.138,0.027-0.338,0.041-0.6,0.041h-0.377v1.08h-0.578v-2.863h0.928c0.352,0,0.581,0.015,0.688,0.043
		c0.164,0.043,0.301,0.137,0.412,0.28s0.166,0.33,0.166,0.558C22.932,21.125,22.9,21.272,22.836,21.393z M25.717,22.137
		c-0.072,0.208-0.174,0.377-0.307,0.506c-0.1,0.098-0.236,0.174-0.406,0.229c-0.127,0.04-0.298,0.061-0.512,0.061h-1.088v-2.863
		h1.057c0.238,0,0.42,0.019,0.545,0.055c0.168,0.05,0.312,0.138,0.432,0.264s0.211,0.281,0.273,0.464s0.094,0.408,0.094,0.677
		C25.805,21.763,25.775,21.966,25.717,22.137z M28.262,20.553h-1.385v0.678h1.195v0.484h-1.195v1.217h-0.578v-2.863h1.963V20.553z"
		/>
</g>
<path fill="none" stroke="#BDBCBB" stroke-miterlimit="10" d="M28.766,40.899c-0.412,3.066,7.74-11.105,3.716-12.713
	c-1.371-0.548,7.421,11.277,7.05,9.636C38.754,34.389,29.076,38.595,28.766,40.899z"/>
</svg>
